<svg xmlns="http://www.w3.org/2000/svg" viewBox="80.5 61.5 347.6 347.6" fill="none">
<g id="Kerf/Asset/League/Silver">
<path id="Vector" d="M253.902 121.247L254.265 121.156C257.587 123.875 262.662 129.145 265.842 132.282L284.52 150.624L332.502 197.376C338.047 202.754 343.365 208.228 348.972 213.564C345.72 213.183 341.355 213.639 337.987 213.467L328.012 213.508C324.605 216.646 321.655 219.995 318.342 223.214L318.757 237.01C318.755 238.084 318.77 241.806 318.572 242.753L319.292 244.18L318.882 244.677L318.44 244.662C317.167 243.679 315.287 241.822 314.377 240.506C312.355 242.552 310.255 244.625 308.265 246.692C311.482 249.92 314.802 253.035 317.935 256.338L376.145 194.202C381.232 188.727 386.282 183.219 391.295 177.678C392.387 176.48 396.982 171.234 398.012 170.43L398.505 170.946C399.242 170.577 400.342 169.188 400.97 168.494C401 170.322 400.557 176.181 401.027 177.438C402.742 175.57 404.662 173.36 406.61 171.783C406.525 191.223 406.565 210.663 406.732 230.102C388.885 248.46 371.347 267.428 353.682 285.98L331.665 309.248C327.295 313.823 321.762 319.273 317.67 323.948L273.34 279.96C271.405 281.815 269.66 283.485 267.865 285.49C264.155 282.27 258.012 274.665 254.147 271.873C253.38 272.273 241.547 284.265 240.722 285.388L235.51 280.09C223.957 290.963 212.831 302.91 201.33 313.885C198.52 316.568 195.103 320.21 192.3 322.718C192.226 322.818 191.11 323.875 190.955 324.025C180.586 313.738 170.233 302.598 160.157 291.993L101.983 230.646C101.781 209.268 102.196 187.86 101.943 166.541C102.53 167.157 103.026 167.778 103.564 168.434C105.189 169.989 107.484 172.278 109.198 173.605L109.576 173.521C109.569 172.084 109.549 170.622 109.561 169.186L171.432 234.464C175.7 238.888 179.873 243.443 184.117 247.88C186.304 250.165 189.408 253.798 191.771 255.623C194.608 252.78 197.724 249.767 200.409 246.816C198.448 244.897 196.451 242.596 194.416 240.569C193.494 241.703 191.361 243.759 190.27 244.878C187.111 241.858 184.242 238.568 181.194 235.433L160.183 214.056C163.828 209.9 169.224 204.823 173.278 200.828L195.317 179.163L253.902 121.247Z" fill="#D9DADC"/>
<path id="Vector_2" d="M253.902 121.247L254.265 121.156C257.587 123.875 262.662 129.145 265.842 132.282L284.52 150.624L332.502 197.376C338.047 202.754 343.365 208.228 348.972 213.564C345.72 213.183 341.355 213.639 337.987 213.467L328.012 213.508C324.605 216.646 321.655 219.995 318.342 223.214L318.757 237.01C318.755 238.084 318.77 241.806 318.572 242.753L319.292 244.18L318.882 244.677L318.44 244.662C317.167 243.679 315.287 241.822 314.377 240.506C312.355 242.552 310.255 244.625 308.265 246.692C306.832 245.678 298.292 236.819 296.417 234.961L264.722 203.518C262.43 201.245 256.262 194.584 254.042 193.211C249.073 197.871 243.898 203.235 239.068 208.065C230.926 216.124 222.831 224.228 214.782 232.379C210.386 236.812 204.857 242.73 200.409 246.816C198.448 244.897 196.451 242.596 194.416 240.569C193.494 241.703 191.361 243.759 190.27 244.878C187.111 241.858 184.242 238.568 181.194 235.433L160.183 214.056C163.828 209.9 169.224 204.823 173.278 200.828L195.317 179.163L253.902 121.247Z" fill="#D9DADC"/>
<path id="Vector_3" d="M253.903 121.247L254.265 121.156C257.588 123.875 262.663 129.145 265.843 132.282L284.52 150.624L332.503 197.376C338.048 202.754 343.365 208.228 348.973 213.564C345.72 213.183 341.355 213.639 337.988 213.467L328.013 213.508C325.428 211.674 322.385 208.352 320.128 206.052C317.328 203.217 314.508 200.403 311.665 197.61L270.395 157.218C265.9 152.864 258.338 144.77 253.855 141.144C253.95 138.832 254.138 131.13 253.315 129.341L254.093 128.287C253.96 125.958 254.173 123.686 253.903 121.247Z" fill="#FBFBFA"/>
<path id="Vector_4" d="M253.902 121.247L254.265 121.156C257.587 123.875 262.662 129.145 265.842 132.282L284.52 150.624L332.502 197.376C338.047 202.754 343.365 208.228 348.972 213.564C345.72 213.183 341.355 213.639 337.987 213.467C338.757 213.404 339.117 213.385 339.885 213.194L339.997 212.856C339.65 212 282.127 156.095 276.88 150.939C269.245 143.436 261.765 135.744 254.092 128.287C253.96 125.958 254.172 123.686 253.902 121.247Z" fill="#8A9097"/>
<path id="Vector_5" d="M253.902 121.247C254.172 123.686 253.96 125.958 254.092 128.287L253.315 129.341L168.103 213.512C172.194 213.505 176.851 213.407 180.894 213.632L190.356 223.373C190.506 224.621 190.336 227.375 190.305 228.74C190.259 231.635 190.232 234.529 190.224 237.424C198.579 229.756 207.754 219.771 215.959 211.687L235.549 192.165C239.828 187.944 245.484 182.674 249.473 178.284C249.9 178.045 252.695 175.258 253.167 174.791C254.247 177.021 253.027 180.026 254.132 181.018C253.332 182.463 249.134 185.97 247.585 187.617C242.714 192.796 237.426 197.809 232.376 202.836C225.63 209.634 218.836 216.385 211.994 223.087C208.942 226.053 205.775 229.192 202.773 232.201C200.929 234.05 195.899 238.686 194.416 240.569C193.494 241.703 191.361 243.759 190.27 244.878C187.111 241.858 184.242 238.568 181.194 235.433L160.183 214.056C163.828 209.9 169.224 204.823 173.278 200.828L195.317 179.163L253.902 121.247Z" fill="#494E54"/>
<path id="Vector_6" d="M254.133 181.018C254.92 181.467 313.873 239.502 314.378 240.506C312.355 242.552 310.255 244.625 308.265 246.692C306.833 245.678 298.293 236.819 296.418 234.961L264.723 203.518C262.43 201.245 256.263 194.584 254.043 193.211C249.073 197.871 243.899 203.235 239.068 208.065C230.927 216.124 222.831 224.228 214.782 232.379C210.386 236.812 204.858 242.73 200.409 246.816C198.448 244.897 196.452 242.596 194.416 240.569C195.899 238.686 200.929 234.05 202.773 232.201C205.776 229.192 208.943 226.053 211.995 223.087C218.836 216.385 225.63 209.634 232.376 202.836C237.426 197.809 242.714 192.796 247.585 187.617C249.135 185.97 253.333 182.463 254.133 181.018Z" fill="#282B2F"/>
<path id="Vector_7" d="M254.017 159.634L300.202 205.299C306.27 211.313 312.475 216.977 318.342 223.214L318.757 237.01C318.755 238.084 318.77 241.806 318.572 242.753L319.292 244.18L318.882 244.677L318.44 244.662C317.167 243.679 315.287 241.822 314.377 240.506C313.872 239.502 254.92 181.467 254.132 181.018C253.027 180.026 254.247 177.021 253.167 174.791L254.182 173.735C254.087 169.035 254.032 164.334 254.017 159.634Z" fill="#A1A7AD"/>
<path id="Vector_8" d="M254.182 173.735C258.745 177.308 267.567 186.559 271.902 190.843L300.947 219.561C306.152 224.748 312.96 231.895 318.277 236.717L318.757 237.01C318.755 238.084 318.77 241.806 318.572 242.753L319.292 244.18L318.882 244.677L318.44 244.662C317.167 243.679 315.287 241.822 314.377 240.506C313.872 239.502 254.92 181.467 254.132 181.018C253.027 180.026 254.247 177.021 253.167 174.791L254.182 173.735Z" fill="#494E54"/>
<path id="Vector_9" d="M318.277 236.717L318.757 237.01C318.755 238.084 318.77 241.806 318.572 242.753C318.317 242.707 318.477 242.755 318.13 242.506C317.915 240.857 318.162 238.444 318.277 236.717Z" fill="#565D63"/>
<path id="Vector_10" d="M190.357 223.373L219.143 194.417C224.148 189.296 229.189 184.232 234.328 179.248C237.259 176.405 240.876 172.505 243.914 170.01C241.917 172.405 237.928 176.251 235.594 178.503C236.032 182.866 233.749 190.554 232.263 194.739C235.014 192.092 247.393 178.884 249.473 178.284C245.484 182.674 239.828 187.944 235.549 192.165L215.96 211.687C207.754 219.771 198.579 229.756 190.224 237.424C190.232 234.529 190.259 231.635 190.305 228.74C190.336 227.375 190.506 224.621 190.357 223.373Z" fill="url(#paint0_linear_139_443)"/>
<path id="Vector_11" d="M400.97 168.494C401 170.322 400.557 176.181 401.027 177.437C402.742 175.569 404.662 173.359 406.61 171.783C406.525 191.223 406.565 210.662 406.732 230.101C388.885 248.46 371.347 267.427 353.682 285.98L331.665 309.247C327.295 313.822 321.762 319.272 317.67 323.947L273.34 279.96C274.79 278.617 276.417 276.89 277.832 275.467C270.057 268.642 261.522 260.007 254.022 252.602C250.937 255.842 233.918 273.407 231.544 274.647C231.292 272.907 230.617 271.902 229.71 270.457C230.769 269.275 232.02 268.047 233.166 266.935C240.017 260.28 246.606 253.152 253.592 246.654L253.822 248.335C254.09 248.914 263.067 257.32 264.53 258.73L302.445 295.297L303.097 294.905C307.047 298.757 310.85 302.707 315.05 306.292C315.427 306.617 315.44 307.03 315.435 307.49C315.865 308.172 315.842 308.122 316.532 308.56C316.872 308.59 317.627 308.762 318 308.837C326.627 298.932 337.732 288.102 346.772 278.435C362.982 261.105 379.367 243.82 395.975 226.873C395.667 212.26 396.002 196.96 395.835 182.2L395.89 181.335L395.56 181.246C394.355 182.009 382.54 195.022 380.577 197.099L335.917 244.554L324.235 256.98C322.522 258.805 320.075 261.56 318.305 263.212C317.632 261.982 317.892 257.967 317.935 256.337L376.145 194.201C381.232 188.727 386.282 183.219 391.295 177.678C392.387 176.479 396.982 171.234 398.012 170.43L398.505 170.945C399.242 170.576 400.342 169.188 400.97 168.494Z" fill="#282B2F"/>
<path id="Vector_12" d="M400.97 168.494C401 170.322 400.557 176.181 401.027 177.437C400.835 183.368 400.962 189.923 400.97 195.895L401.022 228.717C390.945 238.353 380.415 250.145 370.7 260.377C353.247 278.965 335.67 297.43 317.967 315.775C317.96 313.37 318.505 310.037 316.532 308.56C316.872 308.59 317.627 308.762 318 308.837C326.627 298.932 337.732 288.102 346.772 278.435C362.982 261.105 379.367 243.82 395.975 226.873C395.667 212.26 396.002 196.96 395.835 182.2L395.89 181.335L395.56 181.246C394.355 182.009 382.54 195.022 380.577 197.099L335.917 244.554L324.235 256.98C322.522 258.805 320.075 261.56 318.305 263.212C317.632 261.982 317.892 257.967 317.935 256.337L376.145 194.201C381.232 188.727 386.282 183.219 391.295 177.678C392.387 176.479 396.982 171.234 398.012 170.43L398.505 170.945C399.242 170.576 400.342 169.188 400.97 168.494Z" fill="#8A9097"/>
<path id="Vector_13" d="M303.097 294.905C307.047 298.758 310.85 302.708 315.05 306.293C315.427 306.618 315.44 307.03 315.435 307.49C312.16 304.943 305.712 298.395 302.445 295.298L303.097 294.905Z" fill="#8A9097"/>
<path id="Vector_14" d="M254 232.389C263.155 240.677 273.183 251.402 282.2 260.152C289.985 267.692 297.725 275.275 305.423 282.902C309.255 286.665 314.63 291.63 318.173 295.505C317.825 298.855 318.02 305.17 318 308.837C317.628 308.762 316.873 308.59 316.533 308.56C315.843 308.122 315.865 308.172 315.435 307.49C315.44 307.03 315.428 306.617 315.05 306.292C310.85 302.707 307.048 298.757 303.098 294.905L302.445 295.297L264.53 258.73C263.068 257.32 254.09 248.914 253.823 248.335L253.593 246.654C246.606 253.152 240.017 260.28 233.166 266.935C232.02 268.047 230.769 269.275 229.71 270.457C230.618 271.902 231.292 272.907 231.545 274.647C233.918 273.407 250.938 255.842 254.023 252.602C261.523 260.007 270.058 268.642 277.833 275.467C276.418 276.89 274.79 278.617 273.34 279.96C271.405 281.815 269.66 283.485 267.865 285.49C264.155 282.27 258.013 274.665 254.148 271.872C253.38 272.272 241.548 284.265 240.722 285.387L235.51 280.09C223.958 290.962 212.831 302.91 201.33 313.885C198.52 316.567 195.103 320.21 192.301 322.717C191.708 322.175 190.789 317.86 190.146 316.385L190.01 316.23C190.028 314.887 190.175 311.155 189.917 310.032C190.246 307.352 189.938 299.16 189.867 296.232C208.893 277.622 227.271 258.232 246.399 239.707C248.941 237.245 251.368 234.768 254 232.389Z" fill="#494E54"/>
<path id="Vector_15" d="M231.086 275.182C232.405 277 234.674 278.86 235.51 280.09C223.957 290.962 212.831 302.91 201.33 313.885C198.52 316.567 195.103 320.21 192.3 322.717C191.708 322.175 190.789 317.86 190.146 316.385C190.697 315.552 197.439 309.017 198.743 307.687L221.073 285.337C224.244 282.155 228.131 278.437 231.086 275.182Z" fill="#282B2F"/>
<path id="Vector_16" d="M253.823 248.335C253.9 247.677 253.873 246.713 254.225 246.338C258.013 249.162 264.878 256.73 268.62 260.322C280.293 271.52 291.575 283.612 303.098 294.905L302.445 295.297L264.53 258.73C263.068 257.32 254.09 248.914 253.823 248.335Z" fill="#A1A7AD"/>
<path id="Vector_17" d="M253.538 236.125L253.953 236.535C254.205 238.557 254.013 241.722 253.9 243.803C253.263 242.963 253.525 237.484 253.538 236.125Z" fill="#494E54"/>
<path id="Vector_18" d="M101.943 166.541C102.53 167.157 103.026 167.778 103.564 168.434C103.677 170.473 106.418 173.694 106.658 175.45C108.16 178.259 110.232 181.141 110.369 184.162L110.571 183.562L116.894 197.752C117.539 199.216 119.218 202.761 119.617 204.018C119.849 207.093 119.264 223.101 120.135 224.377C123.168 226.997 126.892 231.034 129.656 233.963C133.559 238.107 137.485 242.23 141.434 246.33C157.318 262.805 173.7 280.135 189.867 296.233C189.938 299.16 190.246 307.353 189.917 310.033C190.175 311.155 190.028 314.888 190.01 316.23L190.146 316.385C190.789 317.86 191.708 322.175 192.3 322.718C192.226 322.818 191.11 323.875 190.955 324.025C180.586 313.738 170.233 302.598 160.157 291.993L101.983 230.646C101.781 209.268 102.196 187.86 101.943 166.541Z" fill="#282B2F"/>
<path id="Vector_19" d="M120.135 224.376C123.169 226.996 126.893 231.034 129.657 233.962C133.56 238.107 137.486 242.229 141.435 246.33C157.318 262.805 173.7 280.135 189.867 296.232C189.938 299.16 190.246 307.352 189.917 310.032L110.498 226.984C113.635 226.314 116.814 224.914 120.135 224.376Z" fill="#8A9097"/>
<path id="Vector_20" d="M101.943 166.541C102.53 167.157 103.026 167.778 103.564 168.434C103.677 170.473 106.418 173.694 106.658 175.45C106.256 178.767 106.65 184.743 106.592 188.322C106.467 197.065 106.427 205.809 106.474 214.552C106.474 217.979 106.281 225.533 106.666 228.78C120.457 243.002 134.148 257.32 147.739 271.733C161.562 286.18 176.611 301.485 190.01 316.23L190.146 316.385C190.789 317.86 191.708 322.175 192.3 322.718C192.226 322.818 191.11 323.875 190.955 324.025C180.586 313.738 170.233 302.598 160.157 291.993L101.983 230.646C101.781 209.268 102.196 187.86 101.943 166.541Z" fill="#494E54"/>
<path id="Vector_21" d="M110.571 183.562L116.894 197.752C117.54 199.216 119.218 202.761 119.617 204.018C119.85 207.093 119.264 223.101 120.135 224.377C116.814 224.914 113.635 226.314 110.498 226.984C110.388 224.638 110.379 221.731 110.466 219.386C110.895 207.893 109.606 195.591 110.37 184.162L110.571 183.562Z" fill="#A1A7AD"/>
<path id="Vector_22" d="M318.305 263.213C320.075 261.56 322.522 258.805 324.235 256.98L335.917 244.554L380.577 197.1C382.54 195.022 394.355 182.01 395.56 181.246L395.89 181.335L395.835 182.2C392.525 189.225 389.82 197.298 386.407 204.218C385.695 205.666 380.895 210.371 379.462 211.859L366.21 225.64L336.642 256.933C330.68 263.305 324.235 270.54 318.152 276.675C314.385 273.755 307.005 265.638 303.305 261.993L268.56 227.792C264.07 223.419 258.372 217.342 253.792 213.405C253.78 210.913 253.887 203.173 253.517 201.045L254.01 200.232C253.775 198.266 253.89 195.212 254.042 193.211C256.262 194.584 262.43 201.245 264.722 203.518L296.417 234.961C298.292 236.819 306.832 245.678 308.265 246.692C311.482 249.92 314.802 253.035 317.935 256.338C317.892 257.968 317.632 261.983 318.305 263.213Z" fill="#FBFBFA"/>
<path id="Vector_23" d="M254.042 193.21C256.262 194.584 262.43 201.244 264.722 203.518L296.417 234.961C298.292 236.819 306.832 245.677 308.265 246.692C311.482 249.92 314.802 253.035 317.935 256.337C317.892 257.967 317.632 261.982 318.305 263.212C318.187 263.387 318.282 263.277 317.915 263.405C312.732 259.005 306.902 252.705 301.915 247.807L266.702 212.943C264.315 210.587 261.917 208.259 259.56 205.874C257.737 204.031 255.967 201.89 254.01 200.232C253.775 198.266 253.89 195.211 254.042 193.21Z" fill="#8A9097"/>
<path id="Vector_24" d="M103.564 168.434C105.189 169.989 107.484 172.278 109.198 173.605L109.576 173.521C109.569 172.084 109.549 170.622 109.561 169.186L171.432 234.464C175.7 238.888 179.873 243.443 184.117 247.88C186.304 250.165 189.408 253.798 191.771 255.623C191.207 256.418 190.592 257.353 189.931 258.05C190.006 259.57 189.868 263.75 190.3 264.708L190.119 265.108C189.802 266.538 189.946 275.258 189.96 277.338C183.765 271.71 174.956 261.693 168.918 255.355L144.118 229.544C136.005 221.025 127.936 212.315 119.617 204.018C119.218 202.761 117.539 199.216 116.894 197.752L110.571 183.562L110.369 184.162C110.232 181.141 108.16 178.259 106.658 175.45C106.418 173.694 103.677 170.473 103.564 168.434Z" fill="#8A9097"/>
<path id="Vector_25" d="M110.571 183.561L110.666 182.951C112.045 183.41 132.918 205.701 135.375 208.24L190.119 265.107C189.802 266.537 189.946 275.257 189.96 277.337C183.765 271.71 174.957 261.692 168.919 255.355L144.118 229.543C136.006 221.024 127.936 212.315 119.617 204.018C119.218 202.761 117.54 199.216 116.894 197.752L110.571 183.561Z" fill="#FBFBFA"/>
<path id="Vector_26" d="M109.576 173.521C109.569 172.084 109.549 170.622 109.561 169.186L171.433 234.464C175.7 238.888 179.873 243.443 184.118 247.88C186.304 250.165 189.408 253.798 191.771 255.623C191.208 256.418 190.592 257.353 189.931 258.05C163.584 230.023 136.986 202.234 110.141 174.685C109.707 174.24 109.686 174.107 109.576 173.521Z" fill="#282B2F"/>
<path id="Vector_27" d="M200.409 246.815C204.858 242.73 210.386 236.811 214.782 232.379C222.831 224.228 230.927 216.123 239.068 208.065C243.899 203.235 249.073 197.87 254.043 193.21C253.89 195.211 253.775 198.266 254.01 200.232L253.518 201.045L208.918 245.779L197.07 257.587C194.921 259.74 192.146 262.36 190.301 264.707C189.868 263.75 190.006 259.57 189.931 258.05C190.592 257.352 191.208 256.417 191.771 255.622C194.609 252.78 197.724 249.766 200.409 246.815Z" fill="#494E54"/>
<path id="Vector_28" d="M240.722 285.388C241.547 284.265 253.38 272.273 254.147 271.873C258.012 274.665 264.155 282.27 267.865 285.49C272.96 290.008 279.562 297.003 284.407 301.93L303.557 321.04C307.07 324.568 310.605 328.073 314.16 331.56C315.465 332.848 319.037 336.25 320.015 337.573C319.882 341.085 320.022 345.413 320.042 348.988C313.85 349.005 307.657 348.993 301.465 348.945C299.275 347.295 296.322 344.165 294.302 342.143L282.942 330.715C273.365 321.033 263.557 311.62 254.065 301.853C253.25 302.705 252.477 303.413 251.615 304.205C249.767 306.33 246.756 309.178 244.704 311.228L231.775 324.12L216.212 339.69C213.38 342.513 209.724 346.28 206.801 348.868C202.368 349.298 193.697 348.968 188.827 348.993C190.144 347.495 190.954 346.59 192.737 345.608C192.368 344.518 192.66 340.265 192.717 338.893C191.65 338.658 189.41 338.303 188.82 337.528L207.916 318.278C208.535 317.238 216.449 309.655 217.861 308.23C225.495 300.515 232.785 292.793 240.722 285.388Z" fill="#D9DADC"/>
<path id="Vector_29" d="M254.093 288.025C258.588 292.647 263.258 297.095 267.7 301.782C265.298 300.265 257.705 291.835 254.853 289.315L254.625 289.115C254.625 290.102 254.258 294.945 254.553 295.455C257.368 300.285 263.27 303.63 266.208 308.492C263.86 306.635 256.458 298.83 254.2 296.497C253.308 297.085 253.048 297.387 252.28 298.157C253.118 298.067 253.175 297.965 253.793 297.46C253.95 298.767 253.89 300.192 253.878 301.52C253.135 302.22 251.825 303.265 251.615 304.205C249.767 306.33 246.756 309.177 244.704 311.227L231.775 324.12L216.212 339.69C213.38 342.512 209.724 346.28 206.801 348.867C202.368 349.297 193.698 348.967 188.827 348.992C190.145 347.495 190.954 346.59 192.737 345.607C194.151 345.492 195.81 345.455 197.247 345.387C201.876 340.787 206.094 335.977 210.901 331.34C211.661 330.15 220.07 321.855 221.567 320.357C222.754 319.48 225.153 316.992 226.298 315.855C229.152 313.035 231.977 310.187 234.774 307.312C241.092 300.762 247.533 294.332 254.093 288.025Z" fill="#A1A7AD"/>
<path id="Vector_30" d="M252.28 298.157C253.118 298.067 253.175 297.965 253.792 297.46C253.95 298.767 253.89 300.192 253.878 301.52C253.135 302.22 251.825 303.265 251.615 304.205C249.767 306.33 246.756 309.177 244.704 311.227L231.775 324.12L216.212 339.69C213.38 342.512 209.724 346.28 206.801 348.867L205.104 345.615C206.616 344.107 208.621 341.905 209.971 340.285C210.852 339.717 217.34 332.925 218.385 331.867L240.726 309.337C243.094 306.957 250.022 299.82 252.28 298.157Z" fill="#71777E"/>
<path id="Vector_31" d="M210.901 331.34L211.029 331.825C209.152 334.115 198.674 343.778 197.979 345.63C197.631 345.468 203.907 346.105 203.845 346.115C203.987 345.723 203.938 345.955 203.906 345.4C205.903 344.145 208.452 340.895 209.971 340.285C208.621 341.905 206.617 344.108 205.104 345.615L206.801 348.868C202.368 349.298 193.698 348.968 188.827 348.993C190.145 347.495 190.954 346.59 192.737 345.608C194.151 345.493 195.81 345.455 197.247 345.388C201.876 340.788 206.094 335.978 210.901 331.34Z" fill="#8A9097"/>
<path id="Vector_32" d="M252.28 298.158C253.047 297.388 253.307 297.085 254.2 296.498C256.457 298.83 263.86 306.635 266.207 308.493C267.902 310.463 270.43 312.84 272.33 314.743L283.357 325.743L296.64 338.928C298.728 341.02 301.005 343.525 303.107 345.483L316.487 345.553L316.452 339.033C317.35 338.498 318.982 337.955 320.015 337.573C319.882 341.085 320.022 345.413 320.042 348.988C313.85 349.005 307.657 348.993 301.465 348.945C299.275 347.295 296.322 344.165 294.302 342.143L282.942 330.715C273.365 321.033 263.557 311.62 254.065 301.853C253.25 302.705 252.477 303.413 251.615 304.205C251.825 303.265 253.135 302.22 253.877 301.52C253.89 300.193 253.95 298.768 253.792 297.46C253.175 297.965 253.117 298.068 252.28 298.158Z" fill="#565D63"/>
<path id="Vector_33" d="M303.063 345.68C307.088 345.952 312.463 345.8 316.588 345.795C317.663 346.63 318.793 347.417 319.575 348.515L319.255 348.725C313.415 348.745 307.573 348.73 301.733 348.682C302.15 347.685 302.62 346.67 303.063 345.68Z" fill="#282B2F"/>
<path id="Vector_34" d="M254.147 271.873C258.012 274.665 264.155 282.27 267.865 285.49C272.96 290.008 279.562 297.003 284.407 301.93L303.557 321.04C307.07 324.568 310.605 328.073 314.16 331.56C315.465 332.848 319.037 336.25 320.015 337.573C318.982 337.955 317.35 338.498 316.452 339.033C304.252 326.553 291.942 314.18 279.52 301.92C271.207 293.62 262.667 284.748 254.23 276.66C254.23 275.063 254.202 273.468 254.147 271.873Z" fill="#71777E"/>
<path id="Vector_35" d="M210.411 321.4C211.419 320.765 213.636 318.18 215.04 317.107C214.836 317.727 200.727 331.61 198.758 333.817C200.234 334.757 201.888 337.602 203.804 337.417C204.682 337.33 219.422 321.955 221.455 319.952L221.567 320.357C220.07 321.855 211.661 330.15 210.901 331.34C206.094 335.977 201.876 340.787 197.247 345.387C195.81 345.455 194.151 345.492 192.737 345.607C192.368 344.517 192.66 340.265 192.717 338.892C198.661 333.107 204.559 327.277 210.411 321.4Z" fill="#FBFBFA"/>
<path id="Vector_36" d="M207.916 318.278C207.895 318.505 207.874 318.73 207.853 318.958C205.69 321.62 201.351 325.333 199.22 327.698C199.97 328.185 201.061 328.845 201.726 329.4C203.279 327.798 208.778 321.693 210.411 321.4C204.559 327.278 198.661 333.108 192.717 338.893C191.65 338.658 189.41 338.303 188.82 337.528L207.916 318.278Z" fill="#8A9097"/>
<path id="Vector_37" d="M337.988 213.467C341.355 213.638 345.72 213.183 348.973 213.564C348.508 214.88 322.485 240.581 319.293 244.179L318.573 242.753C318.77 241.805 318.755 238.084 318.758 237.01L318.343 223.214C321.655 219.995 324.605 216.646 328.013 213.508L337.988 213.467Z" fill="#494E54"/>
<path id="Vector_38" d="M188.82 337.528C189.41 338.303 191.65 338.658 192.717 338.893C192.66 340.265 192.368 344.518 192.737 345.608C190.954 346.59 190.144 347.495 188.827 348.993C188.695 346.573 188.557 339.775 188.82 337.528Z" fill="#D9DADC"/>
</g>
</svg>
